<svg width="143" height="55" viewBox="0 0 143 55" fill="none" xmlns="http://www.w3.org/2000/svg">
<path d="M60.4883 16.0859C60.418 16.4141 60.2656 16.6719 60.0312 16.8594C59.7969 17.0469 59.5391 17.1406 59.2578 17.1406C58.8359 17.1406 58.4961 17.0117 58.2383 16.7539C57.9805 16.4727 57.8516 16.1562 57.8516 15.8047C57.8516 15.4531 57.8867 15.1133 57.957 14.7852C58.0273 14.4336 58.0625 14.0938 58.0625 13.7656C58.0625 12.0547 57.5352 10.5195 56.4805 9.16016C55.4258 7.80078 53.9258 6.66406 51.9805 5.75C50.0586 4.8125 47.7148 4.09766 44.9492 3.60547C42.1836 3.11328 39.1016 2.86719 35.7031 2.86719C33.1016 2.86719 30.4766 3.04297 27.8281 3.39453C25.2031 3.72266 22.6719 4.21484 20.2344 4.87109C17.8203 5.50391 15.5586 6.3125 13.4492 7.29688C11.3398 8.25781 9.5 9.38281 7.92969 10.6719C6.38281 11.9375 5.16406 13.3555 4.27344 14.9258C3.38281 16.4727 2.9375 18.1719 2.9375 20.0234C2.9375 21.4531 3.24219 22.7188 3.85156 23.8203C4.48438 24.8984 5.33984 25.8477 6.41797 26.668C7.49609 27.4648 8.76172 28.1562 10.2148 28.7422C11.6914 29.3047 13.2852 29.7852 14.9961 30.1836C16.707 30.5586 18.4883 30.875 20.3398 31.1328C22.1914 31.3672 24.0547 31.5664 25.9297 31.7305L31.3438 32.1875C34.0391 32.4219 36.4531 32.668 38.5859 32.9258C40.7188 33.1836 42.5938 33.5117 44.2109 33.9102C46.9062 34.5898 48.8984 35.5625 50.1875 36.8281C51.4766 38.0938 52.1211 39.7812 52.1211 41.8906C52.1211 43.9297 51.5586 45.7227 50.4336 47.2695C49.3086 48.8164 47.7734 50.1172 45.8281 51.1719C43.8828 52.2266 41.6094 53.0234 39.0078 53.5625C36.4062 54.1016 33.6172 54.3711 30.6406 54.3711C27.4062 54.3711 24.5586 54.1484 22.0977 53.7031C19.6602 53.2812 17.6094 52.8125 15.9453 52.2969C14.3047 51.7578 13.0508 51.2656 12.1836 50.8203C11.3164 50.375 10.8477 50.1289 10.7773 50.082C10.3555 49.8477 10.1445 49.4727 10.1445 48.957C10.1445 48.5586 10.2852 48.2422 10.5664 48.0078C10.8477 47.75 11.1523 47.6211 11.4805 47.6211C11.7383 47.6211 11.9727 47.6914 12.1836 47.832C12.207 47.832 12.6055 48.043 13.3789 48.4648C14.1758 48.8633 15.3477 49.3086 16.8945 49.8008C18.4648 50.293 20.3984 50.7383 22.6953 51.1367C24.9922 51.5352 27.6641 51.7344 30.7109 51.7344C33.7344 51.7344 36.4062 51.4883 38.7266 50.9961C41.0469 50.5039 42.9922 49.8242 44.5625 48.957C46.1562 48.0664 47.3516 47.0352 48.1484 45.8633C48.9688 44.668 49.3789 43.3789 49.3789 41.9961C49.3789 41.1758 49.2266 40.4727 48.9219 39.8867C48.6406 39.2773 48.2422 38.7617 47.7266 38.3398C47.2109 37.8945 46.5898 37.5195 45.8633 37.2148C45.1602 36.9102 44.3867 36.6523 43.543 36.4414C42.6523 36.207 41.6914 36.0078 40.6602 35.8438C39.6523 35.6797 38.6094 35.5391 37.5312 35.4219C36.4531 35.3047 35.3633 35.1992 34.2617 35.1055C33.1836 35.0117 32.1172 34.918 31.0625 34.8242L25.6484 34.3672C21.3828 34.0156 17.6562 33.4766 14.4688 32.75C11.3047 32 8.66797 31.0508 6.55859 29.9023C4.44922 28.7305 2.86719 27.3359 1.8125 25.7188C0.757812 24.1016 0.230469 22.2148 0.230469 20.0586C0.230469 17.8555 0.722656 15.8398 1.70703 14.0117C2.71484 12.1602 4.07422 10.4961 5.78516 9.01953C7.51953 7.54297 9.53516 6.26562 11.832 5.1875C14.1523 4.08594 16.625 3.17188 19.25 2.44531C21.875 1.71875 24.5938 1.17969 27.4062 0.828125C30.2188 0.453125 32.9844 0.265625 35.7031 0.265625C39.1016 0.265625 42.0547 0.476562 44.5625 0.898438C47.0938 1.29688 49.25 1.82422 51.0312 2.48047C52.8359 3.11328 54.3125 3.83984 55.4609 4.66016C56.6094 5.48047 57.5352 6.28906 58.2383 7.08594C59.9023 9.03125 60.7344 11.2461 60.7344 13.7305C60.7344 14.5508 60.6523 15.3359 60.4883 16.0859ZM104.574 1.28516C107.457 1.28516 110.398 1.55469 113.398 2.09375C116.398 2.60938 119.316 3.40625 122.152 4.48438C124.988 5.5625 127.66 6.92188 130.168 8.5625C132.676 10.1797 134.867 12.0781 136.742 14.2578C138.617 16.4375 140.094 18.8984 141.172 21.6406C142.273 24.3828 142.824 27.418 142.824 30.7461C142.824 34.0742 142.238 37.1562 141.066 39.9922C139.895 42.8281 138.254 45.2773 136.145 47.3398C134.035 49.4023 131.516 51.0195 128.586 52.1914C125.656 53.3633 122.434 53.9492 118.918 53.9492C117.254 53.9492 115.531 53.8203 113.75 53.5625C111.969 53.3281 110.188 52.9531 108.406 52.4375C106.625 51.9219 104.867 51.2891 103.133 50.5391C101.422 49.7656 99.7812 48.8516 98.2109 47.7969C96.3594 49.625 94.2148 51.0547 91.7773 52.0859C89.3633 53.0938 86.8086 53.5977 84.1133 53.5977C82.6602 53.5977 81.3008 53.4336 80.0352 53.1055C78.7695 52.7773 77.668 52.3086 76.7305 51.6992C75.8164 51.0898 75.0898 50.3516 74.5508 49.4844C74.0352 48.6172 73.7773 47.6562 73.7773 46.6016C73.7773 45.6875 74 44.832 74.4453 44.0352C74.9141 43.2383 75.5586 42.5352 76.3789 41.9258C77.2227 41.3164 78.2188 40.8359 79.3672 40.4844C80.5391 40.1328 81.8164 39.957 83.1992 39.957C87.2773 39.957 92.1055 41.457 97.6836 44.457C98.7148 43.168 99.5586 41.7148 100.215 40.0977C100.941 38.293 101.504 36.4414 101.902 34.543C102.324 32.6211 102.688 30.7109 102.992 28.8125C103.32 26.9141 103.648 25.0625 103.977 23.2578C104.328 21.4531 104.797 19.7539 105.383 18.1602C105.992 16.5664 106.777 15.1133 107.738 13.8008C108.723 12.4648 110 11.3281 111.57 10.3906C111.805 10.2734 112.016 10.2148 112.203 10.2148C112.531 10.2148 112.836 10.332 113.117 10.5664C113.422 10.8008 113.574 11.1289 113.574 11.5508C113.574 12.043 113.352 12.418 112.906 12.6758C111.664 13.4023 110.645 14.3164 109.848 15.418C109.074 16.4961 108.43 17.7148 107.914 19.0742C107.398 20.4336 106.988 21.8984 106.684 23.4688C106.379 25.0391 106.086 26.6797 105.805 28.3906C105.57 29.7969 105.312 31.2734 105.031 32.8203C104.75 34.3438 104.398 35.8672 103.977 37.3906C103.555 38.8906 103.016 40.3672 102.359 41.8203C101.727 43.25 100.941 44.5742 100.004 45.793C100.051 45.8164 100.074 45.8398 100.074 45.8633C100.098 45.8633 100.133 45.875 100.18 45.8984C103.156 47.6797 106.25 49.0273 109.461 49.9414C112.672 50.8555 115.812 51.3125 118.883 51.3125C122.211 51.3125 125.188 50.7617 127.812 49.6602C130.461 48.5586 132.699 47.082 134.527 45.2305C136.355 43.3555 137.75 41.1758 138.711 38.6914C139.672 36.207 140.152 33.582 140.152 30.8164C140.152 28.0039 139.684 25.3906 138.746 22.9766C137.809 20.5391 136.52 18.3242 134.879 16.332C133.262 14.3398 131.328 12.5703 129.078 11.0234C126.852 9.47656 124.438 8.1875 121.836 7.15625C119.258 6.10156 116.539 5.30469 113.68 4.76562C110.844 4.20312 107.996 3.92188 105.137 3.92188C101.293 3.92188 97.7773 4.25 94.5898 4.90625C91.4258 5.53906 88.6953 6.47656 86.3984 7.71875C84.125 8.96094 82.3555 10.4844 81.0898 12.2891C79.8242 14.0938 79.1914 16.1445 79.1914 18.4414C79.1914 19.7539 79.3789 20.9141 79.7539 21.9219C80.1523 22.9297 80.6445 23.8086 81.2305 24.5586C81.8398 25.2852 82.4961 25.9062 83.1992 26.4219C83.9023 26.9375 84.5586 27.3594 85.168 27.6875C85.7773 27.9922 86.293 28.2148 86.7148 28.3555C87.1602 28.4961 87.418 28.5781 87.4883 28.6016C87.793 28.6719 88.0273 28.8359 88.1914 29.0938C88.3789 29.3281 88.4727 29.5977 88.4727 29.9023C88.4727 30.3008 88.332 30.6055 88.0508 30.8164C87.7695 31.0273 87.4648 31.1328 87.1367 31.1328C86.668 31.1328 86.082 31.0273 85.3789 30.8164C84.6758 30.582 83.9258 30.2422 83.1289 29.7969C82.3555 29.3281 81.5703 28.7539 80.7734 28.0742C80 27.3711 79.2969 26.5508 78.6641 25.6133C78.0312 24.6758 77.5156 23.6094 77.1172 22.4141C76.7422 21.2188 76.5547 19.8945 76.5547 18.4414C76.5547 15.793 77.2227 13.4141 78.5586 11.3047C79.918 9.17188 81.8281 7.36719 84.2891 5.89062C86.75 4.41406 89.6914 3.27734 93.1133 2.48047C96.5586 1.68359 100.379 1.28516 104.574 1.28516ZM95.7852 46.4609C93.3477 45.1719 91.0859 44.1992 89 43.543C86.9141 42.8867 85.0039 42.5586 83.2695 42.5586C82.2852 42.5586 81.3711 42.6758 80.5273 42.9102C79.707 43.1211 78.9922 43.4141 78.3828 43.7891C77.7734 44.1641 77.293 44.5977 76.9414 45.0898C76.5898 45.582 76.4141 46.0977 76.4141 46.6367C76.4141 47.1523 76.5664 47.668 76.8711 48.1836C77.1992 48.6992 77.6797 49.1562 78.3125 49.5547C78.9688 49.9531 79.7773 50.2812 80.7383 50.5391C81.6992 50.7969 82.8242 50.9258 84.1133 50.9258C86.3164 50.9258 88.4141 50.5391 90.4062 49.7656C92.4219 48.9688 94.2148 47.8672 95.7852 46.4609Z" fill="black"/>
</svg>
