<svg width="24" height="24" viewBox="0 0 24 24" fill="none" xmlns="http://www.w3.org/2000/svg">
<g clip-path="url(#clip0)">
<path d="M23 3.01009C22.0424 3.68768 20.9821 4.20594 19.86 4.54489C19.2577 3.85023 18.4573 3.35787 17.567 3.1344C16.6767 2.91094 15.7395 2.96715 14.8821 3.29543C14.0247 3.62372 13.2884 4.20824 12.773 4.96994C12.2575 5.73163 11.9877 6.63376 12 7.55431V8.55744C10.2426 8.60315 8.50127 8.21218 6.93101 7.41933C5.36074 6.62648 4.01032 5.45638 3 4.01323C3 4.01323 -1 13.0415 8 17.054C5.94053 18.4564 3.48716 19.1595 1 19.0603C10 24.076 21 19.0603 21 7.52421C20.9991 7.24479 20.9723 6.96606 20.92 6.69161C21.9406 5.68194 22.6608 4.40717 23 3.01009V3.01009Z" stroke="black" stroke-width="2.1875" stroke-linecap="round" stroke-linejoin="round"/>
</g>
<defs>
<clipPath id="clip0">
<rect width="24" height="24" fill="white"/>
</clipPath>
</defs>
</svg>
