<svg width="24" height="24" viewBox="0 0 24 24" fill="none" xmlns="http://www.w3.org/2000/svg">
<path d="M22.5395 6.348C22.4207 5.88753 22.1788 5.46563 21.8381 5.12491C21.4975 4.78419 21.0703 4.53673 20.5996 4.4075C18.8796 4 12 4 12 4C12 4 5.12036 4 3.40045 4.44631C2.92972 4.57553 2.50247 4.823 2.16186 5.16372C1.82124 5.50444 1.57933 5.92634 1.46055 6.3868C1.14578 8.08042 0.991808 9.79849 1.00057 11.5194C0.989351 13.2533 1.14333 14.9844 1.46055 16.6908C1.5915 17.137 1.83883 17.5428 2.17865 17.8692C2.51847 18.1955 2.93929 18.4313 3.40045 18.5537C5.12036 19 12 19 12 19C12 19 18.8796 19 20.5996 18.5537C21.0703 18.4245 21.4975 18.177 21.8381 17.8363C22.1788 17.4956 22.4207 17.0737 22.5395 16.6132C22.8518 14.9323 23.0058 13.2274 22.9994 11.5194C23.0107 9.78553 22.8567 8.05436 22.5395 6.348V6.348Z" stroke="black" stroke-width="2" stroke-linecap="round" stroke-linejoin="round"/>
<path d="M10 15L16 11.5L10 8V15Z" stroke="black" stroke-width="2" stroke-linecap="round" stroke-linejoin="round"/>
</svg>
